<?xml version="1.0" encoding="UTF-8"?>
<!--Generator: Apple Native CoreSVG 175.5-->
<!DOCTYPE svg
PUBLIC "-//W3C//DTD SVG 1.1//EN"
       "http://www.w3.org/Graphics/SVG/1.1/DTD/svg11.dtd">
<svg version="1.1" xmlns="http://www.w3.org/2000/svg" xmlns:xlink="http://www.w3.org/1999/xlink" width="32.6938" height="28.6069">
 <g>
  <rect height="28.6069" opacity="0" width="32.6938" x="0" y="0"/>
  <path d="M7.16309 3.67598C2.85645 6.28341 0 11.1613 0 17.1672C0 17.6945 0.454102 18.1486 0.952148 18.134C1.46484 18.1193 1.83105 17.7238 1.8457 17.1965C1.97754 11.9377 4.2334 7.80684 7.82227 5.47774ZM25.8691 27.8606C31.6846 25.7512 34.1602 20.4191 31.8164 13.9738L30.7324 10.9709C29.5752 7.7922 27.3926 6.48848 24.8291 7.38204C24.1406 6.48848 23.0859 6.18087 21.9434 6.59102C21.5186 6.75216 21.1523 6.97188 20.8008 7.23555C20.0537 6.26876 18.8965 5.9172 17.6953 6.342C17.373 6.45919 17.0654 6.63497 16.7725 6.84005L15.1025 2.26973C14.4727 0.52657 12.8906-0.205851 11.2646 0.380086C9.62402 0.980672 8.8916 2.54805 9.52148 4.29122L13.6963 15.7756C13.7256 15.8488 13.7109 15.9074 13.6377 15.9367C13.5938 15.966 13.5352 15.9367 13.4912 15.8928L11.7773 14.0178C10.9277 13.1096 9.90234 12.8313 8.9209 13.1828C7.58789 13.6809 6.72363 14.9553 7.28027 16.4641C7.41211 16.8889 7.70508 17.4016 8.04199 17.8264L12.9492 23.759C16.6699 28.2414 21.0059 29.633 25.8691 27.8606ZM25.2393 25.9416C21.4014 27.3479 17.8125 26.6301 14.4141 22.5432L9.50684 16.6399C9.36035 16.4641 9.25781 16.3029 9.16992 16.0539C8.99414 15.5852 9.19922 15.0432 9.75586 14.8381C10.2246 14.677 10.6055 14.8527 10.9717 15.2483L14.3701 18.7492C14.9268 19.3352 15.4248 19.3938 15.9229 19.218C16.4941 19.0129 16.7285 18.3977 16.4941 17.7678L11.3086 3.5002C11.0889 2.91427 11.3525 2.35763 11.9238 2.15255C12.4805 1.94747 13.0225 2.22579 13.2275 2.81173L16.9336 12.9924C17.1094 13.4758 17.6514 13.6955 18.1348 13.5197C18.6035 13.344 18.8672 12.8313 18.6914 12.3625L17.3584 8.68575C17.5488 8.49532 17.8418 8.30489 18.1055 8.20235C18.7939 7.95333 19.3652 8.26095 19.6289 8.97872L20.8008 12.1867C20.9766 12.6848 21.5332 12.8752 22.002 12.6994C22.4414 12.5383 22.7344 12.0549 22.5439 11.5422L21.5918 8.93477C21.7969 8.74434 22.0752 8.55391 22.3535 8.45138C23.042 8.20235 23.6133 8.50997 23.877 9.22774L24.6533 11.3664C24.8438 11.8791 25.3857 12.0695 25.8545 11.8938C26.3086 11.7326 26.5869 11.2346 26.4111 10.7365L25.8398 9.1545C27.0557 8.71505 28.2129 9.71114 29.0039 11.9084L29.9268 14.4133C31.9336 19.9504 30.1172 24.1691 25.2393 25.9416Z" fill="#ffffff" fill-opacity="0.85"/>
 </g>
</svg>
