<?xml version="1.0" encoding="UTF-8"?>
<!--Generator: Apple Native CoreSVG 175.5-->
<!DOCTYPE svg
PUBLIC "-//W3C//DTD SVG 1.1//EN"
       "http://www.w3.org/Graphics/SVG/1.1/DTD/svg11.dtd">
<svg version="1.1" xmlns="http://www.w3.org/2000/svg" xmlns:xlink="http://www.w3.org/1999/xlink" width="28.6523" height="28.7256">
 <g>
  <rect height="28.7256" opacity="0" width="28.6523" x="0" y="0"/>
  <path d="M21.2988 28.7256C23.8623 28.7256 25.5469 28.0371 27.0264 26.3672C27.1436 26.25 27.2607 26.1182 27.3633 26.001C28.2422 25.0195 28.6523 24.0527 28.6523 23.1299C28.6523 22.0752 28.0371 21.0938 26.7334 20.1855L22.4707 17.2266C21.1523 16.3184 19.6143 16.2158 18.3838 17.4316L17.2559 18.5596C16.9189 18.8965 16.626 18.9111 16.3037 18.7061C15.5127 18.208 13.916 16.8164 12.832 15.7324C11.6895 14.6045 10.5908 13.3447 10.0049 12.4219C9.81445 12.085 9.8291 11.8066 10.166 11.4697L11.2793 10.3418C12.5098 9.11133 12.4072 7.55859 11.499 6.25488L8.54004 1.99219C7.63184 0.688477 6.65039 0.0878906 5.5957 0.0732422C4.67285 0.0585938 3.70605 0.483398 2.72461 1.3623C2.59277 1.47949 2.47559 1.58203 2.3584 1.68457C0.688477 3.17871 0 4.86328 0 7.39746C0 11.5869 2.57812 16.6846 7.30957 21.416C12.0117 26.1182 17.124 28.7256 21.2988 28.7256ZM21.3135 26.4697C17.5781 26.543 12.7881 23.6719 8.99414 19.8926C5.1709 16.084 2.16797 11.1328 2.24121 7.39746C2.27051 5.78613 2.8418 4.39453 3.98438 3.39844C4.08691 3.31055 4.16016 3.2373 4.2627 3.16406C4.70215 2.7832 5.1709 2.57812 5.5957 2.57812C6.02051 2.57812 6.40137 2.73926 6.67969 3.17871L9.52148 7.44141C9.8291 7.89551 9.8584 8.4082 9.4043 8.8623L8.11523 10.1514C7.10449 11.1621 7.17773 12.3926 7.91016 13.374C8.74512 14.502 10.1953 16.1426 11.3232 17.2559C12.4365 18.3838 14.209 19.9658 15.3516 20.8154C16.333 21.5479 17.5635 21.6211 18.5742 20.6104L19.8633 19.3213C20.3174 18.8672 20.8154 18.8965 21.2842 19.1895L25.5469 22.0312C25.9863 22.3242 26.1475 22.6904 26.1475 23.1299C26.1475 23.5547 25.9424 24.0234 25.5615 24.4629C25.4736 24.5654 25.415 24.6387 25.3271 24.7412C24.3311 25.8838 22.9395 26.4404 21.3135 26.4697Z" fill="#ffffff" fill-opacity="0.85"/>
 </g>
</svg>
